Coordinates
version=1
nRows=26
nColumns=22
inDegrees=yes

Units are S.I. units (second, meters, Newtons, ...)
If the header above contains a line with 'inDegrees', this indicates whether rotational values are in degrees (yes) or radians (no).

endheader
time	pelvis_tilt	pelvis_list	pelvis_rotation	pelvis_tx	pelvis_ty	pelvis_tz	hip_flexion_r	hip_adduction_r	hip_rotation_r	knee_angle_r	ankle_angle_r	subtalar_angle_r	hip_flexion_l	hip_adduction_l	hip_rotation_l	knee_angle_l	ankle_angle_l	subtalar_angle_l	lumbar_extension	lumbar_bending	lumbar_rotation
      2.94000000	      2.92758920	      5.34463094	     40.61566599	     -0.53958253	      0.93947405	     -0.51919141	     17.97145274	      3.05607941	     -1.85917971	    -64.76761275	     -4.95134666	      5.91829199	      3.90289578	     -2.78401443	     -7.71060785	    -23.22817169	     20.34505737	     -7.23594033	    -15.63268662	      0.79270751	    -12.72498165
      2.95000000	      3.15047592	      5.20782270	     40.25210745	     -0.53317796	      0.94039419	     -0.52472945	     19.06540017	      2.91415084	     -2.79019208	    -63.80680188	     -3.72735761	      5.38346044	      2.85968855	     -3.03829319	     -8.27878992	    -22.63582911	     20.64485166	     -7.03041508	    -15.83653787	      1.07137563	    -13.10479480
      2.96000000	      3.33181998	      5.11581350	     39.87967809	     -0.52671642	      0.94104881	     -0.53023282	     20.06793005	      2.69511818	     -3.70751656	    -62.59628582	     -2.62970188	      4.86252059	      1.82941968	     -3.22413306	     -8.91186170	    -22.07652811	     20.98228757	     -6.77806917	    -16.03971378	      1.27652240	    -13.45354079
      2.97000000	      3.48020952	      5.04600811	     39.49534578	     -0.52016826	      0.94144858	     -0.53569258	     20.97601340	      2.45031687	     -4.57356038	    -61.12213859	     -1.64619402	      4.48982702	      0.80220281	     -3.35450171	     -9.53531462	    -21.51323328	     21.30264555	     -6.54205036	    -16.23211590	      1.43402798	    -13.75444709
      2.98000000	      3.58490535	      5.01492262	     39.10803292	     -0.51354929	      0.94155973	     -0.54113347	     21.79637436	      2.14236711	     -5.41714012	    -59.41158849	     -0.80391791	      4.16890561	     -0.20503426	     -3.41304487	    -10.17586264	    -20.98280636	     21.65718021	     -6.29819678	    -16.41541834	      1.52480412	    -14.02791484
      2.99000000	      3.64596749	      5.00886967	     38.72791437	     -0.50685653	      0.94137725	     -0.54655894	     22.53568633	      1.78827334	     -6.24078932	    -57.46921824	     -0.08190904	      3.95278879	     -1.18097792	     -3.40940298	    -10.79738797	    -20.48185110	     22.03445954	     -6.09131941	    -16.58144024	      1.56292696	    -14.25801869
      3.00000000	      3.68537567	      5.04698820	     38.35300074	     -0.50004502	      0.94095850	     -0.55197908	     23.15860228	      1.39523505	     -7.03486946	    -55.29803920	      0.49276211	      3.75733930	     -2.16794327	     -3.34568815	    -11.41652935	    -19.99281214	     22.42879619	     -5.88993711	    -16.75564161	      1.54652925	    -14.49177682
      3.01000000	      3.69852322	      5.12500188	     37.99418421	     -0.49311753	      0.94031229	     -0.55739460	     23.67389878	      0.96363343	     -7.81444335	    -52.90727312	      0.91735825	      3.56116766	     -3.15352120	     -3.22392834	    -12.02520762	    -19.51824373	     22.82873387	     -5.69983680	    -16.93282559	      1.47667067	    -14.71871711
      3.02000000	      3.69124333	      5.21229964	     37.65632308	     -0.48605128	      0.93941980	     -0.56283635	     24.09099723	      0.51952953	     -8.60501697	    -50.30320991	      1.30067281	      3.43134690	     -4.11288263	     -3.07531198	    -12.58108356	    -19.08203536	     23.25379047	     -5.57155141	    -17.08693838	      1.39024937	    -14.91888391
      3.03000000	      3.67042942	      5.33215808	     37.32704980	     -0.47880776	      0.93832715	     -0.56827381	     24.39728038	      0.06301608	     -9.38903833	    -47.50909342	      1.56486761	      3.28780177	     -5.07662938	     -2.88746802	    -13.10907703	    -18.66888812	     23.69568160	     -5.46604181	    -17.23642383	      1.26273043	    -15.12354507
      3.04000000	      3.63652374	      5.46115903	     37.01998344	     -0.47142457	      0.93702994	     -0.57371932	     24.60790671	     -0.38248977	    -10.17192350	    -44.53561325	      1.75110312	      3.15406256	     -6.01734438	     -2.68381412	    -13.59625388	    -18.29341504	     24.15555993	     -5.38675176	    -17.37152458	      1.12691998	    -15.30925145
      3.05000000	      3.60524729	      5.58562944	     36.72172949	     -0.46382687	      0.93554460	     -0.57913521	     24.71918572	     -0.78180944	    -10.94749711	    -41.40444337	      1.85679019	      3.04756381	     -6.93927540	     -2.49378323	    -14.04850425	    -17.96906623	     24.63208904	     -5.32027081	    -17.48482064	      0.99129402	    -15.49887055
      3.06000000	      3.55531315	      5.69457824	     36.43669713	     -0.45604868	      0.93383999	     -0.58451673	     24.76933315	     -1.13444919	    -11.69622016	    -38.15072425	      1.88215267	      2.98447379	     -7.80438670	     -2.31540642	    -14.46789651	    -17.71486346	     25.14596460	     -5.24394194	    -17.55219475	      0.86132601	    -15.67785476
      3.07000000	      3.51085131	      5.77925488	     36.15045010	     -0.44802820	      0.93196055	     -0.58983592	     24.74447413	     -1.40990103	    -12.41563419	    -34.80198465	      1.83489405	      2.95092512	     -8.64156847	     -2.17102339	    -14.85370227	    -17.51396798	     25.68036069	     -5.13972508	    -17.58383876	      0.74934396	    -15.82849281
      3.08000000	      3.45913301	      5.82951307	     35.87170936	     -0.43978652	      0.92988997	     -0.59510154	     24.67714246	     -1.61443410	    -13.10663124	    -31.41209873	      1.74486384	      2.94711893	     -9.42304729	     -2.06616444	    -15.21238646	    -17.38385627	     26.23886074	     -5.00695269	    -17.55987749	      0.66652110	    -15.97164634
      3.09000000	      3.41234198	      5.84840476	     35.59910648	     -0.43130942	      0.92766543	     -0.60031055	     24.56919162	     -1.75017636	    -13.78507478	    -28.04266937	      1.64775679	      2.95962203	    -10.16776609	     -2.00606424	    -15.54653078	    -17.31592571	     26.80549906	     -4.83874304	    -17.49675623	      0.61397236	    -16.10534936
      3.10000000	      3.36561028	      5.83083722	     35.34137422	     -0.42261337	      0.92529186	     -0.60548168	     24.45078405	     -1.82972806	    -14.47979658	    -24.77463367	      1.58911657	      2.98314066	    -10.86651393	     -1.99320914	    -15.85064077	    -17.31218545	     27.37860315	     -4.64542677	    -17.38544222	      0.60094681	    -16.23866145
      3.11000000	      3.35242807	      5.79755579	     35.08602893	     -0.41368416	      0.92286308	     -0.61059969	     24.29636717	     -1.85115628	    -15.18639838	    -21.67842389	      1.60861017	      3.01586600	    -11.58308334	     -2.02225150	    -16.11578142	    -17.33358100	     27.90234930	     -4.35763949	    -17.27961431	      0.62633020	    -16.34859997
      3.12000000	      3.30681771	      5.68549180	     34.88690523	     -0.40459000	      0.92023603	     -0.61571258	     24.24049474	     -1.83634526	    -15.99331606	    -18.87651893	      1.73770826	      3.05438430	    -12.16342141	     -2.13651223	    -16.35073295	    -17.48310840	     28.48658581	     -4.18853095	    -17.07140105	      0.72100888	    -16.50578403
      3.13000000	      3.30694619	      5.55200179	     34.69600228	     -0.39528398	      0.91762511	     -0.62078876	     24.17878128	     -1.76654961	    -16.80841212	    -16.40532830	      1.98072120	      3.09491047	    -12.77036351	     -2.30524221	    -16.53604928	    -17.65541627	     29.00230303	     -3.98518692	    -16.88311696	      0.87439026	    -16.64822394
      3.14000000	      3.33451687	      5.38260098	     34.52396064	     -0.38579126	      0.91501643	     -0.62581925	     24.15384192	     -1.65208620	    -17.62170323	    -14.33938510	      2.32724773	      3.12938928	    -13.36199771	     -2.53903023	    -16.68186327	    -17.88022793	     29.46026849	     -3.77946357	    -16.69376665	      1.08806113	    -16.79055914
      3.15000000	      3.39622707	      5.17768840	     34.36251287	     -0.37610440	      0.91245676	     -0.63080884	     24.15892834	     -1.49202943	    -18.38196110	    -12.71788766	      2.74201689	      3.14635842	    -13.95126802	     -2.83626290	    -16.78526918	    -18.14750535	     29.83761938	     -3.57186963	    -16.51179849	      1.36507422	    -16.92845198
      3.16000000	      3.48562771	      4.94355874	     34.20671468	     -0.36620663	      0.90997292	     -0.63576363	     24.19435689	     -1.30048160	    -19.04405993	    -11.57308708	      3.19882814	      3.13851071	    -14.53575032	     -3.18720383	    -16.85406034	    -18.46241895	     30.12435702	     -3.38516380	    -16.33187416	      1.69576058	    -17.07579884
      3.17000000	      3.63469316	      4.68730673	     34.04476134	     -0.35604235	      0.90765301	     -0.64066643	     24.20626768	     -1.06134214	    -19.59662813	    -10.88873968	      3.60371912	      3.06279957	    -15.16556092	     -3.59941267	    -16.88417603	    -18.79805290	     30.27909137	     -3.13404051	    -16.18692588	      2.07994137	    -17.20332357
      3.18000000	      3.80224531	      4.40698998	     33.87548220	     -0.34559386	      0.90545961	     -0.64556053	     24.23293832	     -0.80228373	    -20.03584156	    -10.67356225	      3.97201713	      2.92832071	    -15.80224469	     -4.04949252	    -16.90746945	    -19.16052803	     30.32228985	     -2.89894727	    -16.02881479	      2.50760021	    -17.35877275
      3.19000000	      3.99825860	      4.11005856	     33.69028592	     -0.33481399	      0.90343245	     -0.65037003	     24.25964107	     -0.51701540	    -20.37802545	    -10.90999784	      4.24300166	      2.74901716	    -16.44135608	     -4.54744849	    -16.92742122	    -19.58998228	     30.19619198	     -2.70306443	    -15.87161639	      2.95289286	    -17.51320514
